<?xml version="1.0" encoding="UTF-8" standalone="no"?>
<!DOCTYPE svg PUBLIC "-//W3C//DTD SVG 1.1//EN"
 "http://www.w3.org/Graphics/SVG/1.1/DTD/svg11.dtd">
<!-- Generated by graphviz version 2.43.0 (0)
 -->
<!-- Title: %3 Pages: 1 -->
<svg width="642pt" height="836pt"
 viewBox="0.00 0.00 642.34 836.00" xmlns="http://www.w3.org/2000/svg" xmlns:xlink="http://www.w3.org/1999/xlink">
<g id="graph0" class="graph" transform="scale(1 1) rotate(0) translate(4 832)">
<title>%3</title>
<polygon fill="white" stroke="transparent" points="-4,4 -4,-832 638.34,-832 638.34,4 -4,4"/>
<!-- 0(0 1) -->
<g id="node1" class="node">
<title>0(0 1)</title>
<ellipse fill="none" stroke="black" cx="117.15" cy="-810" rx="38.19" ry="18"/>
<text text-anchor="middle" x="117.15" y="-806.3" font-family="Times,serif" font-size="14.00">0(0 1)</text>
</g>
<!-- 1(0 0) -->
<g id="node2" class="node">
<title>1(0 0)</title>
<ellipse fill="none" stroke="black" cx="69.15" cy="-738" rx="38.19" ry="18"/>
<text text-anchor="middle" x="69.15" y="-734.3" font-family="Times,serif" font-size="14.00">1(0 0)</text>
</g>
<!-- 0(0 1)&#45;&gt;1(0 0) -->
<g id="edge1" class="edge">
<title>0(0 1)&#45;&gt;1(0 0)</title>
<path fill="none" stroke="black" d="M106.01,-792.76C100.16,-784.23 92.86,-773.58 86.3,-764.02"/>
<polygon fill="black" stroke="black" points="89.09,-761.9 80.55,-755.63 83.32,-765.86 89.09,-761.9"/>
</g>
<!-- 1(1 1) -->
<g id="node3" class="node">
<title>1(1 1)</title>
<ellipse fill="none" stroke="black" cx="164.15" cy="-738" rx="38.19" ry="18"/>
<text text-anchor="middle" x="164.15" y="-734.3" font-family="Times,serif" font-size="14.00">1(1 1)</text>
</g>
<!-- 0(0 1)&#45;&gt;1(1 1) -->
<g id="edge2" class="edge">
<title>0(0 1)&#45;&gt;1(1 1)</title>
<path fill="none" stroke="black" d="M128.28,-792.41C134.02,-783.87 141.13,-773.28 147.5,-763.79"/>
<polygon fill="black" stroke="black" points="150.42,-765.72 153.09,-755.47 144.61,-761.82 150.42,-765.72"/>
</g>
<!-- 2(1 0) -->
<g id="node4" class="node">
<title>2(1 0)</title>
<ellipse fill="none" stroke="black" cx="69.15" cy="-666" rx="38.19" ry="18"/>
<text text-anchor="middle" x="69.15" y="-662.3" font-family="Times,serif" font-size="14.00">2(1 0)</text>
</g>
<!-- 1(0 0)&#45;&gt;2(1 0) -->
<g id="edge3" class="edge">
<title>1(0 0)&#45;&gt;2(1 0)</title>
<path fill="none" stroke="black" d="M69.15,-719.7C69.15,-711.98 69.15,-702.71 69.15,-694.11"/>
<polygon fill="black" stroke="black" points="72.65,-694.1 69.15,-684.1 65.65,-694.1 72.65,-694.1"/>
</g>
<!-- 1(1 1)&#45;&gt;2(1 0) -->
<g id="edge4" class="edge">
<title>1(1 1)&#45;&gt;2(1 0)</title>
<path fill="none" stroke="black" d="M144.46,-722.5C130.7,-712.36 112.14,-698.68 96.89,-687.44"/>
<polygon fill="black" stroke="black" points="98.93,-684.6 88.8,-681.49 94.78,-690.24 98.93,-684.6"/>
</g>
<!-- 2(1 2) -->
<g id="node5" class="node">
<title>2(1 2)</title>
<ellipse fill="none" stroke="black" cx="164.15" cy="-666" rx="38.19" ry="18"/>
<text text-anchor="middle" x="164.15" y="-662.3" font-family="Times,serif" font-size="14.00">2(1 2)</text>
</g>
<!-- 1(1 1)&#45;&gt;2(1 2) -->
<g id="edge5" class="edge">
<title>1(1 1)&#45;&gt;2(1 2)</title>
<path fill="none" stroke="black" d="M164.15,-719.7C164.15,-711.98 164.15,-702.71 164.15,-694.11"/>
<polygon fill="black" stroke="black" points="167.65,-694.1 164.15,-684.1 160.65,-694.1 167.65,-694.1"/>
</g>
<!-- 4(2 1) -->
<g id="node7" class="node">
<title>4(2 1)</title>
<ellipse fill="none" stroke="black" cx="225.15" cy="-522" rx="38.19" ry="18"/>
<text text-anchor="middle" x="225.15" y="-518.3" font-family="Times,serif" font-size="14.00">4(2 1)</text>
</g>
<!-- 1(1 1)&#45;&gt;4(2 1) -->
<g id="edge7" class="edge">
<title>1(1 1)&#45;&gt;4(2 1)</title>
<path fill="none" stroke="black" d="M182.5,-721.8C192.81,-712.13 204.83,-698.69 211.15,-684 229.97,-640.23 229.98,-583.69 227.85,-550.58"/>
<polygon fill="black" stroke="black" points="231.32,-550.01 227.08,-540.3 224.34,-550.54 231.32,-550.01"/>
</g>
<!-- 3(2 0) -->
<g id="node6" class="node">
<title>3(2 0)</title>
<ellipse fill="none" stroke="black" cx="112.15" cy="-594" rx="38.19" ry="18"/>
<text text-anchor="middle" x="112.15" y="-590.3" font-family="Times,serif" font-size="14.00">3(2 0)</text>
</g>
<!-- 2(1 0)&#45;&gt;3(2 0) -->
<g id="edge6" class="edge">
<title>2(1 0)&#45;&gt;3(2 0)</title>
<path fill="none" stroke="black" d="M79.34,-648.41C84.53,-639.95 90.96,-629.49 96.74,-620.08"/>
<polygon fill="black" stroke="black" points="99.78,-621.82 102.03,-611.47 93.81,-618.16 99.78,-621.82"/>
</g>
<!-- 3(2 0)&#45;&gt;4(2 1) -->
<g id="edge8" class="edge">
<title>3(2 0)&#45;&gt;4(2 1)</title>
<path fill="none" stroke="black" d="M134.47,-579.17C151.57,-568.58 175.37,-553.84 194.29,-542.11"/>
<polygon fill="black" stroke="black" points="196.21,-545.04 202.87,-536.8 192.52,-539.09 196.21,-545.04"/>
</g>
<!-- 4(3 0) -->
<g id="node8" class="node">
<title>4(3 0)</title>
<ellipse fill="none" stroke="black" cx="112.15" cy="-522" rx="38.19" ry="18"/>
<text text-anchor="middle" x="112.15" y="-518.3" font-family="Times,serif" font-size="14.00">4(3 0)</text>
</g>
<!-- 3(2 0)&#45;&gt;4(3 0) -->
<g id="edge9" class="edge">
<title>3(2 0)&#45;&gt;4(3 0)</title>
<path fill="none" stroke="black" d="M112.15,-575.7C112.15,-567.98 112.15,-558.71 112.15,-550.11"/>
<polygon fill="black" stroke="black" points="115.65,-550.1 112.15,-540.1 108.65,-550.1 115.65,-550.1"/>
</g>
<!-- 5(3 9) -->
<g id="node9" class="node">
<title>5(3 9)</title>
<ellipse fill="none" stroke="black" cx="348.15" cy="-810" rx="38.19" ry="18"/>
<text text-anchor="middle" x="348.15" y="-806.3" font-family="Times,serif" font-size="14.00">5(3 9)</text>
</g>
<!-- 6(3 8) -->
<g id="node10" class="node">
<title>6(3 8)</title>
<ellipse fill="none" stroke="black" cx="315.15" cy="-666" rx="38.19" ry="18"/>
<text text-anchor="middle" x="315.15" y="-662.3" font-family="Times,serif" font-size="14.00">6(3 8)</text>
</g>
<!-- 5(3 9)&#45;&gt;6(3 8) -->
<g id="edge10" class="edge">
<title>5(3 9)&#45;&gt;6(3 8)</title>
<path fill="none" stroke="black" d="M343.4,-791.87C340.58,-781.51 337.02,-768.03 334.15,-756 329.22,-735.38 324.24,-711.93 320.62,-694.28"/>
<polygon fill="black" stroke="black" points="323.97,-693.22 318.55,-684.12 317.11,-694.61 323.97,-693.22"/>
</g>
<!-- 6(4 9) -->
<g id="node11" class="node">
<title>6(4 9)</title>
<ellipse fill="none" stroke="black" cx="381.15" cy="-738" rx="38.19" ry="18"/>
<text text-anchor="middle" x="381.15" y="-734.3" font-family="Times,serif" font-size="14.00">6(4 9)</text>
</g>
<!-- 5(3 9)&#45;&gt;6(4 9) -->
<g id="edge11" class="edge">
<title>5(3 9)&#45;&gt;6(4 9)</title>
<path fill="none" stroke="black" d="M356.13,-792.05C359.94,-783.97 364.59,-774.12 368.84,-765.11"/>
<polygon fill="black" stroke="black" points="372.13,-766.33 373.23,-755.79 365.8,-763.34 372.13,-766.33"/>
</g>
<!-- 9(4 8) -->
<g id="node14" class="node">
<title>9(4 8)</title>
<ellipse fill="none" stroke="black" cx="329.15" cy="-522" rx="38.19" ry="18"/>
<text text-anchor="middle" x="329.15" y="-518.3" font-family="Times,serif" font-size="14.00">9(4 8)</text>
</g>
<!-- 6(3 8)&#45;&gt;9(4 8) -->
<g id="edge14" class="edge">
<title>6(3 8)&#45;&gt;9(4 8)</title>
<path fill="none" stroke="black" d="M316.83,-647.87C319.22,-623.67 323.6,-579.21 326.44,-550.39"/>
<polygon fill="black" stroke="black" points="329.95,-550.48 327.45,-540.19 322.99,-549.8 329.95,-550.48"/>
</g>
<!-- 7(5 9) -->
<g id="node12" class="node">
<title>7(5 9)</title>
<ellipse fill="none" stroke="black" cx="447.15" cy="-666" rx="38.19" ry="18"/>
<text text-anchor="middle" x="447.15" y="-662.3" font-family="Times,serif" font-size="14.00">7(5 9)</text>
</g>
<!-- 6(4 9)&#45;&gt;7(5 9) -->
<g id="edge12" class="edge">
<title>6(4 9)&#45;&gt;7(5 9)</title>
<path fill="none" stroke="black" d="M396.12,-721.12C404.73,-711.99 415.7,-700.36 425.26,-690.22"/>
<polygon fill="black" stroke="black" points="427.91,-692.5 432.23,-682.82 422.82,-687.7 427.91,-692.5"/>
</g>
<!-- 6(4 9)&#45;&gt;9(4 8) -->
<g id="edge15" class="edge">
<title>6(4 9)&#45;&gt;9(4 8)</title>
<path fill="none" stroke="black" d="M377.74,-719.88C374.12,-701.92 368.09,-672.9 362.15,-648 354.03,-614 343.58,-575.1 336.63,-549.85"/>
<polygon fill="black" stroke="black" points="339.92,-548.63 333.89,-539.92 333.18,-550.49 339.92,-548.63"/>
</g>
<!-- 8(5 8) -->
<g id="node13" class="node">
<title>8(5 8)</title>
<ellipse fill="none" stroke="black" cx="447.15" cy="-594" rx="38.19" ry="18"/>
<text text-anchor="middle" x="447.15" y="-590.3" font-family="Times,serif" font-size="14.00">8(5 8)</text>
</g>
<!-- 7(5 9)&#45;&gt;8(5 8) -->
<g id="edge13" class="edge">
<title>7(5 9)&#45;&gt;8(5 8)</title>
<path fill="none" stroke="black" d="M447.15,-647.7C447.15,-639.98 447.15,-630.71 447.15,-622.11"/>
<polygon fill="black" stroke="black" points="450.65,-622.1 447.15,-612.1 443.65,-622.1 450.65,-622.1"/>
</g>
<!-- 10(6 9) -->
<g id="node18" class="node">
<title>10(6 9)</title>
<ellipse fill="none" stroke="black" cx="590.15" cy="-450" rx="44.39" ry="18"/>
<text text-anchor="middle" x="590.15" y="-446.3" font-family="Times,serif" font-size="14.00">10(6 9)</text>
</g>
<!-- 7(5 9)&#45;&gt;10(6 9) -->
<g id="edge20" class="edge">
<title>7(5 9)&#45;&gt;10(6 9)</title>
<path fill="none" stroke="black" d="M466.28,-650.21C492.69,-628.76 540.01,-586.49 566.15,-540 576.96,-520.76 583.09,-496.42 586.44,-478.05"/>
<polygon fill="black" stroke="black" points="589.92,-478.46 588.11,-468.02 583.02,-477.31 589.92,-478.46"/>
</g>
<!-- 8(5 8)&#45;&gt;9(4 8) -->
<g id="edge16" class="edge">
<title>8(5 8)&#45;&gt;9(4 8)</title>
<path fill="none" stroke="black" d="M424.39,-579.5C406.39,-568.82 381.03,-553.78 361.01,-541.9"/>
<polygon fill="black" stroke="black" points="362.62,-538.79 352.23,-536.69 359.04,-544.81 362.62,-538.79"/>
</g>
<!-- 9(5 7) -->
<g id="node15" class="node">
<title>9(5 7)</title>
<ellipse fill="none" stroke="black" cx="424.15" cy="-522" rx="38.19" ry="18"/>
<text text-anchor="middle" x="424.15" y="-518.3" font-family="Times,serif" font-size="14.00">9(5 7)</text>
</g>
<!-- 8(5 8)&#45;&gt;9(5 7) -->
<g id="edge17" class="edge">
<title>8(5 8)&#45;&gt;9(5 7)</title>
<path fill="none" stroke="black" d="M441.58,-576.05C438.99,-568.18 435.85,-558.62 432.95,-549.79"/>
<polygon fill="black" stroke="black" points="436.27,-548.68 429.82,-540.28 429.62,-550.87 436.27,-548.68"/>
</g>
<!-- 9(6 8) -->
<g id="node16" class="node">
<title>9(6 8)</title>
<ellipse fill="none" stroke="black" cx="519.15" cy="-522" rx="38.19" ry="18"/>
<text text-anchor="middle" x="519.15" y="-518.3" font-family="Times,serif" font-size="14.00">9(6 8)</text>
</g>
<!-- 8(5 8)&#45;&gt;9(6 8) -->
<g id="edge18" class="edge">
<title>8(5 8)&#45;&gt;9(6 8)</title>
<path fill="none" stroke="black" d="M463.12,-577.46C472.73,-568.13 485.11,-556.09 495.8,-545.7"/>
<polygon fill="black" stroke="black" points="498.48,-547.97 503.21,-538.49 493.6,-542.95 498.48,-547.97"/>
</g>
<!-- 10(5 6) -->
<g id="node17" class="node">
<title>10(5 6)</title>
<ellipse fill="none" stroke="black" cx="424.15" cy="-450" rx="44.39" ry="18"/>
<text text-anchor="middle" x="424.15" y="-446.3" font-family="Times,serif" font-size="14.00">10(5 6)</text>
</g>
<!-- 9(5 7)&#45;&gt;10(5 6) -->
<g id="edge19" class="edge">
<title>9(5 7)&#45;&gt;10(5 6)</title>
<path fill="none" stroke="black" d="M424.15,-503.7C424.15,-495.98 424.15,-486.71 424.15,-478.11"/>
<polygon fill="black" stroke="black" points="427.65,-478.1 424.15,-468.1 420.65,-478.1 427.65,-478.1"/>
</g>
<!-- 16(6 7) -->
<g id="node33" class="node">
<title>16(6 7)</title>
<ellipse fill="none" stroke="black" cx="444.15" cy="-18" rx="44.39" ry="18"/>
<text text-anchor="middle" x="444.15" y="-14.3" font-family="Times,serif" font-size="14.00">16(6 7)</text>
</g>
<!-- 9(5 7)&#45;&gt;16(6 7) -->
<g id="edge42" class="edge">
<title>9(5 7)&#45;&gt;16(6 7)</title>
<path fill="none" stroke="black" d="M394.46,-510.42C388.41,-508.28 382.07,-506.06 376.15,-504 213.37,-447.46 9.15,-551.31 9.15,-379 9.15,-379 9.15,-379 9.15,-161 9.15,-147.59 -51.79,-149.64 143.15,-72 225.51,-39.2 328.58,-26.64 390.24,-21.87"/>
<polygon fill="black" stroke="black" points="390.8,-25.34 400.52,-21.12 390.29,-18.36 390.8,-25.34"/>
</g>
<!-- 9(6 8)&#45;&gt;10(6 9) -->
<g id="edge21" class="edge">
<title>9(6 8)&#45;&gt;10(6 9)</title>
<path fill="none" stroke="black" d="M534.9,-505.46C544.24,-496.26 556.25,-484.42 566.68,-474.13"/>
<polygon fill="black" stroke="black" points="569.28,-476.49 573.94,-466.98 564.36,-471.51 569.28,-476.49"/>
</g>
<!-- 9(6 8)&#45;&gt;16(6 7) -->
<g id="edge43" class="edge">
<title>9(6 8)&#45;&gt;16(6 7)</title>
<path fill="none" stroke="black" d="M518.95,-503.95C518.66,-477.29 518.15,-424.12 518.15,-379 518.15,-379 518.15,-379 518.15,-161 518.15,-115.15 487.43,-69.43 465.57,-42.71"/>
<polygon fill="black" stroke="black" points="468.24,-40.45 459.12,-35.05 462.89,-44.96 468.24,-40.45"/>
</g>
<!-- 11(5 5) -->
<g id="node19" class="node">
<title>11(5 5)</title>
<ellipse fill="none" stroke="black" cx="278.15" cy="-378" rx="44.39" ry="18"/>
<text text-anchor="middle" x="278.15" y="-374.3" font-family="Times,serif" font-size="14.00">11(5 5)</text>
</g>
<!-- 10(5 6)&#45;&gt;11(5 5) -->
<g id="edge22" class="edge">
<title>10(5 6)&#45;&gt;11(5 5)</title>
<path fill="none" stroke="black" d="M396.68,-435.83C373.68,-424.81 340.64,-408.97 315.29,-396.81"/>
<polygon fill="black" stroke="black" points="316.51,-393.51 305.98,-392.35 313.48,-399.82 316.51,-393.51"/>
</g>
<!-- 13(6 6) -->
<g id="node24" class="node">
<title>13(6 6)</title>
<ellipse fill="none" stroke="black" cx="437.15" cy="-234" rx="44.39" ry="18"/>
<text text-anchor="middle" x="437.15" y="-230.3" font-family="Times,serif" font-size="14.00">13(6 6)</text>
</g>
<!-- 10(5 6)&#45;&gt;13(6 6) -->
<g id="edge28" class="edge">
<title>10(5 6)&#45;&gt;13(6 6)</title>
<path fill="none" stroke="black" d="M425.19,-431.85C427.44,-394.83 432.76,-307.18 435.48,-262.39"/>
<polygon fill="black" stroke="black" points="438.99,-262.43 436.1,-252.23 432,-262 438.99,-262.43"/>
</g>
<!-- 12(5 4) -->
<g id="node20" class="node">
<title>12(5 4)</title>
<ellipse fill="none" stroke="black" cx="225.15" cy="-306" rx="44.39" ry="18"/>
<text text-anchor="middle" x="225.15" y="-302.3" font-family="Times,serif" font-size="14.00">12(5 4)</text>
</g>
<!-- 11(5 5)&#45;&gt;12(5 4) -->
<g id="edge23" class="edge">
<title>11(5 5)&#45;&gt;12(5 4)</title>
<path fill="none" stroke="black" d="M265.59,-360.41C259.05,-351.78 250.94,-341.06 243.69,-331.5"/>
<polygon fill="black" stroke="black" points="246.44,-329.33 237.62,-323.47 240.86,-333.56 246.44,-329.33"/>
</g>
<!-- 12(6 5) -->
<g id="node21" class="node">
<title>12(6 5)</title>
<ellipse fill="none" stroke="black" cx="331.15" cy="-306" rx="44.39" ry="18"/>
<text text-anchor="middle" x="331.15" y="-302.3" font-family="Times,serif" font-size="14.00">12(6 5)</text>
</g>
<!-- 11(5 5)&#45;&gt;12(6 5) -->
<g id="edge24" class="edge">
<title>11(5 5)&#45;&gt;12(6 5)</title>
<path fill="none" stroke="black" d="M290.71,-360.41C297.24,-351.78 305.36,-341.06 312.6,-331.5"/>
<polygon fill="black" stroke="black" points="315.43,-333.56 318.68,-323.47 309.85,-329.33 315.43,-333.56"/>
</g>
<!-- 14(4 5) -->
<g id="node26" class="node">
<title>14(4 5)</title>
<ellipse fill="none" stroke="black" cx="87.15" cy="-162" rx="44.39" ry="18"/>
<text text-anchor="middle" x="87.15" y="-158.3" font-family="Times,serif" font-size="14.00">14(4 5)</text>
</g>
<!-- 11(5 5)&#45;&gt;14(4 5) -->
<g id="edge31" class="edge">
<title>11(5 5)&#45;&gt;14(4 5)</title>
<path fill="none" stroke="black" d="M241.01,-367.98C190.33,-353.39 101.74,-319.21 66.15,-252 55.64,-232.17 63.14,-207.1 71.96,-188.63"/>
<polygon fill="black" stroke="black" points="75.13,-190.12 76.61,-179.63 68.91,-186.91 75.13,-190.12"/>
</g>
<!-- 13(4 4) -->
<g id="node22" class="node">
<title>13(4 4)</title>
<ellipse fill="none" stroke="black" cx="119.15" cy="-234" rx="44.39" ry="18"/>
<text text-anchor="middle" x="119.15" y="-230.3" font-family="Times,serif" font-size="14.00">13(4 4)</text>
</g>
<!-- 12(5 4)&#45;&gt;13(4 4) -->
<g id="edge25" class="edge">
<title>12(5 4)&#45;&gt;13(4 4)</title>
<path fill="none" stroke="black" d="M202.92,-290.33C187.52,-280.15 166.8,-266.47 149.83,-255.26"/>
<polygon fill="black" stroke="black" points="151.61,-252.25 141.34,-249.65 147.75,-258.09 151.61,-252.25"/>
</g>
<!-- 13(6 4) -->
<g id="node23" class="node">
<title>13(6 4)</title>
<ellipse fill="none" stroke="black" cx="225.15" cy="-234" rx="44.39" ry="18"/>
<text text-anchor="middle" x="225.15" y="-230.3" font-family="Times,serif" font-size="14.00">13(6 4)</text>
</g>
<!-- 12(5 4)&#45;&gt;13(6 4) -->
<g id="edge26" class="edge">
<title>12(5 4)&#45;&gt;13(6 4)</title>
<path fill="none" stroke="black" d="M225.15,-287.7C225.15,-279.98 225.15,-270.71 225.15,-262.11"/>
<polygon fill="black" stroke="black" points="228.65,-262.1 225.15,-252.1 221.65,-262.1 228.65,-262.1"/>
</g>
<!-- 12(6 5)&#45;&gt;13(6 4) -->
<g id="edge27" class="edge">
<title>12(6 5)&#45;&gt;13(6 4)</title>
<path fill="none" stroke="black" d="M308.92,-290.33C293.52,-280.15 272.8,-266.47 255.83,-255.26"/>
<polygon fill="black" stroke="black" points="257.61,-252.25 247.34,-249.65 253.75,-258.09 257.61,-252.25"/>
</g>
<!-- 12(6 5)&#45;&gt;13(6 6) -->
<g id="edge29" class="edge">
<title>12(6 5)&#45;&gt;13(6 6)</title>
<path fill="none" stroke="black" d="M353.37,-290.33C368.77,-280.15 389.49,-266.47 406.46,-255.26"/>
<polygon fill="black" stroke="black" points="408.54,-258.09 414.95,-249.65 404.68,-252.25 408.54,-258.09"/>
</g>
<!-- 13(7 5) -->
<g id="node25" class="node">
<title>13(7 5)</title>
<ellipse fill="none" stroke="black" cx="331.15" cy="-234" rx="44.39" ry="18"/>
<text text-anchor="middle" x="331.15" y="-230.3" font-family="Times,serif" font-size="14.00">13(7 5)</text>
</g>
<!-- 12(6 5)&#45;&gt;13(7 5) -->
<g id="edge30" class="edge">
<title>12(6 5)&#45;&gt;13(7 5)</title>
<path fill="none" stroke="black" d="M331.15,-287.7C331.15,-279.98 331.15,-270.71 331.15,-262.11"/>
<polygon fill="black" stroke="black" points="334.65,-262.1 331.15,-252.1 327.65,-262.1 334.65,-262.1"/>
</g>
<!-- 13(4 4)&#45;&gt;14(4 5) -->
<g id="edge32" class="edge">
<title>13(4 4)&#45;&gt;14(4 5)</title>
<path fill="none" stroke="black" d="M111.4,-216.05C107.7,-207.97 103.2,-198.12 99.08,-189.11"/>
<polygon fill="black" stroke="black" points="102.16,-187.43 94.82,-179.79 95.79,-190.34 102.16,-187.43"/>
</g>
<!-- 14(7 4) -->
<g id="node27" class="node">
<title>14(7 4)</title>
<ellipse fill="none" stroke="black" cx="196.15" cy="-162" rx="44.39" ry="18"/>
<text text-anchor="middle" x="196.15" y="-158.3" font-family="Times,serif" font-size="14.00">14(7 4)</text>
</g>
<!-- 13(6 4)&#45;&gt;14(7 4) -->
<g id="edge33" class="edge">
<title>13(6 4)&#45;&gt;14(7 4)</title>
<path fill="none" stroke="black" d="M218.13,-216.05C214.78,-207.97 210.7,-198.12 206.96,-189.11"/>
<polygon fill="black" stroke="black" points="210.16,-187.69 203.1,-179.79 203.69,-190.37 210.16,-187.69"/>
</g>
<!-- 14(7 6) -->
<g id="node28" class="node">
<title>14(7 6)</title>
<ellipse fill="none" stroke="black" cx="408.15" cy="-162" rx="44.39" ry="18"/>
<text text-anchor="middle" x="408.15" y="-158.3" font-family="Times,serif" font-size="14.00">14(7 6)</text>
</g>
<!-- 13(6 6)&#45;&gt;14(7 6) -->
<g id="edge35" class="edge">
<title>13(6 6)&#45;&gt;14(7 6)</title>
<path fill="none" stroke="black" d="M430.13,-216.05C426.78,-207.97 422.7,-198.12 418.96,-189.11"/>
<polygon fill="black" stroke="black" points="422.16,-187.69 415.1,-179.79 415.69,-190.37 422.16,-187.69"/>
</g>
<!-- 13(6 6)&#45;&gt;16(6 7) -->
<g id="edge44" class="edge">
<title>13(6 6)&#45;&gt;16(6 7)</title>
<path fill="none" stroke="black" d="M447.1,-215.98C452.42,-205.89 458.42,-192.64 461.15,-180 471.27,-133.08 468.56,-119.42 461.15,-72 459.77,-63.18 457.17,-53.82 454.41,-45.46"/>
<polygon fill="black" stroke="black" points="457.65,-44.13 451.04,-35.86 451.05,-46.45 457.65,-44.13"/>
</g>
<!-- 13(7 5)&#45;&gt;14(7 4) -->
<g id="edge34" class="edge">
<title>13(7 5)&#45;&gt;14(7 4)</title>
<path fill="none" stroke="black" d="M304.8,-219.34C283.89,-208.5 254.47,-193.24 231.51,-181.34"/>
<polygon fill="black" stroke="black" points="232.92,-178.12 222.43,-176.63 229.7,-184.34 232.92,-178.12"/>
</g>
<!-- 13(7 5)&#45;&gt;14(7 6) -->
<g id="edge36" class="edge">
<title>13(7 5)&#45;&gt;14(7 6)</title>
<path fill="none" stroke="black" d="M348.62,-217.12C358.86,-207.81 371.96,-195.9 383.26,-185.62"/>
<polygon fill="black" stroke="black" points="385.7,-188.14 390.74,-178.82 380.99,-182.96 385.7,-188.14"/>
</g>
<!-- 14(8 5) -->
<g id="node29" class="node">
<title>14(8 5)</title>
<ellipse fill="none" stroke="black" cx="302.15" cy="-162" rx="44.39" ry="18"/>
<text text-anchor="middle" x="302.15" y="-158.3" font-family="Times,serif" font-size="14.00">14(8 5)</text>
</g>
<!-- 13(7 5)&#45;&gt;14(8 5) -->
<g id="edge37" class="edge">
<title>13(7 5)&#45;&gt;14(8 5)</title>
<path fill="none" stroke="black" d="M324.13,-216.05C320.78,-207.97 316.7,-198.12 312.96,-189.11"/>
<polygon fill="black" stroke="black" points="316.16,-187.69 309.1,-179.79 309.69,-190.37 316.16,-187.69"/>
</g>
<!-- 15(7 7) -->
<g id="node30" class="node">
<title>15(7 7)</title>
<ellipse fill="none" stroke="black" cx="408.15" cy="-90" rx="44.39" ry="18"/>
<text text-anchor="middle" x="408.15" y="-86.3" font-family="Times,serif" font-size="14.00">15(7 7)</text>
</g>
<!-- 14(7 6)&#45;&gt;15(7 7) -->
<g id="edge38" class="edge">
<title>14(7 6)&#45;&gt;15(7 7)</title>
<path fill="none" stroke="black" d="M408.15,-143.7C408.15,-135.98 408.15,-126.71 408.15,-118.11"/>
<polygon fill="black" stroke="black" points="411.65,-118.1 408.15,-108.1 404.65,-118.1 411.65,-118.1"/>
</g>
<!-- 15(8 6) -->
<g id="node31" class="node">
<title>15(8 6)</title>
<ellipse fill="none" stroke="black" cx="302.15" cy="-90" rx="44.39" ry="18"/>
<text text-anchor="middle" x="302.15" y="-86.3" font-family="Times,serif" font-size="14.00">15(8 6)</text>
</g>
<!-- 14(7 6)&#45;&gt;15(8 6) -->
<g id="edge39" class="edge">
<title>14(7 6)&#45;&gt;15(8 6)</title>
<path fill="none" stroke="black" d="M385.92,-146.33C370.52,-136.15 349.8,-122.47 332.83,-111.26"/>
<polygon fill="black" stroke="black" points="334.61,-108.25 324.34,-105.65 330.75,-114.09 334.61,-108.25"/>
</g>
<!-- 14(8 5)&#45;&gt;15(8 6) -->
<g id="edge40" class="edge">
<title>14(8 5)&#45;&gt;15(8 6)</title>
<path fill="none" stroke="black" d="M302.15,-143.7C302.15,-135.98 302.15,-126.71 302.15,-118.11"/>
<polygon fill="black" stroke="black" points="305.65,-118.1 302.15,-108.1 298.65,-118.1 305.65,-118.1"/>
</g>
<!-- 15(9 5) -->
<g id="node32" class="node">
<title>15(9 5)</title>
<ellipse fill="none" stroke="black" cx="196.15" cy="-90" rx="44.39" ry="18"/>
<text text-anchor="middle" x="196.15" y="-86.3" font-family="Times,serif" font-size="14.00">15(9 5)</text>
</g>
<!-- 14(8 5)&#45;&gt;15(9 5) -->
<g id="edge41" class="edge">
<title>14(8 5)&#45;&gt;15(9 5)</title>
<path fill="none" stroke="black" d="M279.92,-146.33C264.52,-136.15 243.8,-122.47 226.83,-111.26"/>
<polygon fill="black" stroke="black" points="228.61,-108.25 218.34,-105.65 224.75,-114.09 228.61,-108.25"/>
</g>
<!-- 15(7 7)&#45;&gt;16(6 7) -->
<g id="edge45" class="edge">
<title>15(7 7)&#45;&gt;16(6 7)</title>
<path fill="none" stroke="black" d="M416.86,-72.05C421.06,-63.89 426.19,-53.91 430.86,-44.82"/>
<polygon fill="black" stroke="black" points="434.05,-46.28 435.51,-35.79 427.83,-43.08 434.05,-46.28"/>
</g>
</g>
</svg>
